<?xml version="1.0" encoding="utf-8"?>

<!DOCTYPE svg PUBLIC "-//W3C//DTD SVG 1.1//EN" "http://www.w3.org/Graphics/SVG/1.1/DTD/svg11.dtd">
<!-- Uploaded to: SVG Repo, www.svgrepo.com, Generator: SVG Repo Mixer Tools -->
<svg height="800px" width="800px" version="1.1" id="_x32_" xmlns="http://www.w3.org/2000/svg" xmlns:xlink="http://www.w3.org/1999/xlink" 
	 viewBox="0 0 512 512"  xml:space="preserve">
<style type="text/css">
	.st0{fill:#000000;}
</style>
<g>
	<path class="st0" d="M486.656,239.167l-51.019-153.01c-9.73-29.219-37.078-48.937-67.87-48.937L267.686,49.833
		c-6.656,1.069-15.062,3.156-21.907,5.259L133.231,98.218v174.607L259.22,443.19c13.29,19.744,35.565,31.59,59.373,31.59h3.578
		c7.764,0,15.079-3.794,19.55-10.174c4.436-6.363,5.526-14.519,2.876-21.83l-27.228-74.846c-2.651-7.311-1.574-15.45,2.879-21.822
		c4.466-6.38,11.765-10.173,19.532-10.173h134.934c18.942,0,37.285-13.312,37.285-31.573v-23.106
		C512,256.703,486.656,239.167,486.656,239.167z"/>
	<path class="st0" d="M84.842,92.942H11.937C5.346,92.942,0,98.271,0,104.84v228.596c0,6.587,5.346,11.941,11.937,11.941h72.905
		c6.578,0,11.924-5.354,11.924-11.941V104.84C96.766,98.271,91.42,92.942,84.842,92.942z"/>
</g>
</svg>